<svg xmlns="http://www.w3.org/2000/svg" width="1254" height="1254" shape-rendering="geometricPrecision" text-rendering="geometricPrecision" image-rendering="optimizeQuality" fill-rule="evenodd" clip-rule="evenodd"><path fill="#f9f9f9" d="M-.5-.5h1254v1254H-.5V-.5z"/><path fill="#b8b8b8" d="M576.5 335.5c133.8-1 267.8-1.3 402-1 .2 1.3-.1 2.3-1 3-133.3-2-267-2.7-401-2z"/><path fill="#3e3d3f" d="M363.5 336.5c70.8-1 141.8-1.3 213-1 134-.7 267.7 0 401 2 0 .7-.3 1-1 1-204-2-408.3-2.7-613-2z"/><path fill="#010101" d="M363.5 336.5c204.7-.7 409 0 613 2-80.8 158-162.5 315.7-245 473-.7 0-1 .3-1 1-.9.7-1.2 1.7-1 3 69.5.3 138.8 0 208-1 6.5-.6 12.5 0 18 2l-59 84c-208 .7-415.7 0-623-2 49.3-87.9 99.1-175.5 149.5-263l119.5-215c.9-.7 1.2-1.7 1-3h-77c-53.5-.8-107.2-1.3-161-1.5.7-1.3 1.8-2.5 3.5-3.5.5-1.3.7-2.6.5-4 18.4-23.7 36.4-47.7 54-72z"/><path fill="#1d1c1c" d="M309.5 408.5c.2 1.4 0 2.7-.5 4-1.7 1-2.8 2.2-3.5 3.5 53.8.2 107.5.7 161 1.5-54.5.3-108.8 0-163-1 1.6-3 3.6-5.6 6-8z"/><path fill="#b3b3b4" d="M303.5 416.5c54.2 1 108.5 1.3 163 1h77c.2 1.3-.1 2.3-1 3-79.7-1.7-159.7-2.7-240-3 .1-.6.5-.9 1-1z"/><path fill="#c0c1c1" d="M688.5 418.5v-1c52-.2 104 0 156 .5-.5 1-1.2 1.8-2 2.5-51-2-102.3-2.7-154-2z"/><path fill="#f7f7f7" d="M688.5 418.5c51.7-.7 103 0 154 2-33.5 63.3-68 126-103.5 188-37.2 68.8-74.7 137.5-112.5 206-12 .6-23.7 0-35-2 33.1-70.8 67.7-140.8 104-210-18-.8-36-1.3-54-1.5-1.1-.7-1.7-1.7-2-3 9.5-35.5 19.2-71 29-106.5 1.5-2 2.1-4.3 2-7 4.5-22.5 10.5-44.5 18-66z"/><path fill="#0f0f0f" d="M686.5 417.5h2v1c-7.5 21.5-13.5 43.5-18 66h-1c-.8-.5-1.3.2-1.5 2l-.5-2.5c1.5-4.4 2-9 1.5-13.5-1.3-2.5-2.5-2.5-3.5 0-.5-.2-1.1-.5-1.5-1-.3 1.5-1 2.9-2 4-.8-1.1-1.6-1.1-2.5 0 9.5-18.4 18.5-37 27-56z"/><path fill="#f3f3f3" d="M686.5 417.5c-8.5 19-17.5 37.6-27 56l-67 128c.1-.7 0-1.5-.5-2-.7 1.2-1.2 1.2-1.5 0 .7-2.3 1.2-4.6 1.5-7 1.4.1 2.5-.5 3.5-1.5-.9-1.9-.5-3.7 1-5.5-3.2-2.7-5.9-5.9-8-9.5.7-1.3 1.7-2.3 3-3l-1.5-.5c-2.7 3.1-5.9 3.7-9.5 2 .2 2.2-.6 3.8-2.5 5-1-.7-2.2-.7-3.5 0 34.7-54.2 70.1-108.1 106-161.5 2-.5 4-.7 6-.5z"/><path fill="#969498" d="M669.5 484.5h1c.1 2.7-.5 5-2 7 .2-2.4.5-4.7 1-7z"/><path fill="#f7f7f7" d="M592.5 601.5c-9.1 17.8-18.4 35.5-28 53-.9.7-1.2 1.7-1 3h10c14.3 0 28.7.4 43 1-5.7 24.8-11.8 49.5-18.5 74-5.5 27.1-11.4 54.1-17.5 81-53.3 1.3-106.7 1.3-160 0 50.8-78.4 102.2-156.4 154-234 1.3-.7 2.5-.7 3.5 0 1.9-1.2 2.7-2.8 2.5-5 3.6 1.7 6.8 1.1 9.5-2l1.5.5c-1.3.7-2.3 1.7-3 3 2.1 3.6 4.8 6.8 8 9.5-1.5 1.8-1.9 3.6-1 5.5-1 1-2.1 1.6-3.5 1.5-.3 2.4-.8 4.7-1.5 7 .3 1.2.8 1.2 1.5 0 .5.5.6 1.3.5 2z"/><path fill="#656565" d="M564.5 654.5c2.7 1.6 5.7 2.6 9 3h-10c-.2-1.3.1-2.3 1-3z"/><path fill="#c6c7c7" d="M731.5 811.5c74.7 2 149.7 2.7 225 2 .2 1.3-.1 2.3-1 3-5.5-2-11.5-2.6-18-2-69.3.7-138.3 0-207-2 0-.7.3-1 1-1z"/><path fill="#606061" d="M591.5 812.5c11.3 2 23 2.6 35 2-11.8 1-23.8 1.3-36 1-.2-1.3.1-2.3 1-3z"/><path fill="#4a4a4a" d="M730.5 812.5c68.7 2 137.7 2.7 207 2-69.2 1-138.5 1.3-208 1-.2-1.3.1-2.3 1-3z"/><path fill="#4b4a4a" d="M273.5 898.5c207.3 2 415 2.7 623 2v1c-208.2.3-416.2 0-624-1-.2-1 .2-1.7 1-2z"/><path fill="#d0d0cf" d="M272.5 900.5c207.8 1 415.8 1.3 624 1-208.2 1.3-416.5 1.3-625 0 .1-.6.5-.9 1-1z"/></svg>