<svg xmlns="http://www.w3.org/2000/svg" width="1254" height="1254" style="shape-rendering:geometricPrecision;text-rendering:geometricPrecision;image-rendering:optimizeQuality;fill-rule:evenodd;clip-rule:evenodd"><path fill="#f8f8f8" d="M1020.5 333.5v-2c.89-.761 1.56-1.761 2-3a56631 56631 0 0 0-673 0 32.5 32.5 0 0 0-8 .5q-1.984 1.224-2 3.5-3.13 1.627-4 5-4.46 8.252-12 14a424 424 0 0 1 15-23 10.3 10.3 0 0 1 4-1.5q340.72-.636 681-1 2.31 5.226-3 7.5" style="opacity:1"/><path fill="#cacaca" d="M349.5 328.5q336.25-2 673 0c-.44 1.239-1.11 2.239-2 3v-3z" style="opacity:1"/><path fill="#414141" d="M349.5 328.5h671v5c-.67.333-1.33.667-2 1 .54-1.617.87-3.284 1-5q-338.5-.25-677 .5a10.5 10.5 0 0 1-3 2.5q.016-2.276 2-3.5a32.5 32.5 0 0 1 8-.5" style="opacity:1"/><path d="M1018.5 334.5c.07 1.527-.59 2.527-2 3q-2.265 2.521-3 6c-.84.342-1.17 1.008-1 2-2.7 2.735-4.37 6.069-5 10-.67 0-1 .333-1 1-2.61 3.145-4.28 6.811-5 11-1-.086-1.829.248-2.5 1a70.2 70.2 0 0 0-7.5 16q-2.162 1.98-2 5-4.425 3.342-5 9a53.6 53.6 0 0 0-6.5 8 273 273 0 0 1-8.5 17l-1 2q-3.132 2.754-4 7-1.258.512-1 2-3.635 3.762-5 9a22300 22300 0 0 1-24 42 28.5 28.5 0 0 0-4 11q-3.945 3.97-7 9a1586 1586 0 0 0-25 47l-1 4q-3.636 3.5-6.5 8a558 558 0 0 0-14.5 28 5.73 5.73 0 0 0-1 3q-3.444 1.85-4 6-.648 1.815-2 3a2651 2651 0 0 1-39 70 54.5 54.5 0 0 0-4 11q-7.779 8.541-11 20-3.444 1.85-4 6a5.73 5.73 0 0 0-1 3q-2.803 2.301-4 6-.648 1.815-2 3-2.556 4.134-4 9l-2 3q-1.855 2.198-3 5a5.73 5.73 0 0 0-1 3q-3.132 2.754-4 7l-1 2q-3.639 3.77-5 9a5.73 5.73 0 0 0-1 3q-3.444 1.85-4 6a16.3 16.3 0 0 0-2 5q-3.203 3.372-5 8-1.1 1.812-1 4-1.314-.197-2 1a90 90 0 0 1-7 14q-3.635 3.762-5 9-1.356 1.063-1 3-1.314-.197-2 1a2535 2535 0 0 0-3 8q-5.029 6.057-7 14-3.444 1.85-4 6l-1 2q-2.11.71-2 3-1.356 1.063-1 3l250 2a16.3 16.3 0 0 0-2 5q-1.494-.128-2.5 1l-30 42a4.93 4.93 0 0 0-.5 3q-1.494-.128-2.5 1a1641 1641 0 0 1-26.5 38q-1.356 1.063-1 3h-682q-.426-2.872 1-5 3.132-2.754 4-7a32.5 32.5 0 0 0 3-7q5.955-5.87 9-14a21.6 21.6 0 0 0 4-5 71 71 0 0 0 3-9q1.494.128 2.5-1a130 130 0 0 1 6.5-12l2-6q3.55-2.547 5-7 2.74-2.47 4-6-.258-1.487 1-2 3.132-2.754 4-7 .35-2.343 2-4 2.724-2.427 4-6l2-6q5.994-5.976 9-14a5.73 5.73 0 0 0 1-3q3.483-1.953 4-6a16.3 16.3 0 0 0 2-5q3.13-1.627 4-5l2-6q3.132-2.754 4-7 3.315-.59 4-4 6.486-12.927 13-26 3.585-2.65 5-7 2.538-2.558 4-6-.258-1.487 1-2 2.538-2.558 4-6l2-7q1.494.128 2.5-1a214 214 0 0 1 10-17 298 298 0 0 0 9.5-20q3.444-1.85 4-6a16.3 16.3 0 0 0 2-5 52.3 52.3 0 0 0 6.5-8q1.926-4.545 3.5-9-.258-1.487 1-2a6.55 6.55 0 0 0 3-3q1.314.197 2-1a89 89 0 0 1 4-10 464 464 0 0 1 8.5-14q1.926-4.545 3.5-9 4.416-3.324 5-9 1.494.129 2.5-1a33 33 0 0 1 2.5-6q1.1-1.812 1-4 1.314.197 2-1a397 397 0 0 0 13-23q-.258-1.487 1-2 3.058-2.116 3-6a61.8 61.8 0 0 0 7-11l2-6q4.673-4.452 6-11 3.064-1.619 4-5 3.132-2.754 4-7 .648-1.815 2-3 2.618-2.3 3-6a16.3 16.3 0 0 0 2-5q1.494.129 2.5-1a93 93 0 0 1 4.5-12 55.4 55.4 0 0 0 5.5-6 94.2 94.2 0 0 0 8.5-18 11.4 11.4 0 0 1 2.5-2 2623 2623 0 0 1 29.5-55 54 54 0 0 0 8-15q-2.128-1.426-5-1a16003 16003 0 0 0-253-1v-4q-.11-2.29 2-3 5.438-3.892 8-10 3.785-7.506 10.5-13a197 197 0 0 1 8.5-14q3.13-1.627 4-5a18.5 18.5 0 0 0 3.5-2 197 197 0 0 1 8.5-14q7.54-5.748 12-14 3.13-1.627 4-5a10.5 10.5 0 0 0 3-2.5q338.5-.75 677-.5a20.6 20.6 0 0 1-1 5m-159 89q-1.258.512-1 2-3.635 3.762-5 9-3.7 4.256-5 10-1.76 1.52-2 4-3.663 2.431-4 7-1.356 1.063-1 3-1.345 1.647-2.5 0a40 40 0 0 1-2.5 8q-1.356 1.063-1 3-.925-.166-1.5-1a43 43 0 0 0-1.5 5 16.3 16.3 0 0 0-2 5q-3.444 1.85-4 6a16.3 16.3 0 0 0-2 5q-4.373 3.226-5 9-1.258.512-1 2a53 53 0 0 0-7 10 6.85 6.85 0 0 0-1 4q-2.406 1.18-2 4-3.874 2.227-4 7-4.503 3.992-6 10v1a14.7 14.7 0 0 0-3.5 3q-3.273 7.54-6.5 15-1.76 1.52-2 4-1.314-.197-2 1a2535 2535 0 0 0-3 8q-1.314-.197-2 1a2535 2535 0 0 0-3 8q-1.494-.129-2.5 1a110 110 0 0 0-2.5 8q-2.406 1.18-2 4-2.919.802-3 4a16.3 16.3 0 0 0-2 5q-3.874 2.227-4 7-1.258.513-1 2-4.416 3.324-5 9-1.258.513-1 2-3.361 1.2-3 5-2.406 1.18-2 4-3.8 1.701-4 6v1q-4.861 3.798-6 10-4.545 5.09-6 12-.925-.166-1.5-1a38 38 0 0 0-2.5 8q-5.553 5.534-8 15-2.862 1.479-3 5-2.406 1.18-2 4-.925-.166-1.5-1a176 176 0 0 1-7.5 16q-1.356 1.063-1 3-4.698 2.555-5 8a5.73 5.73 0 0 0-1 3q-1.437.679-2.5 2a126.3 126.3 0 0 0-9.5 19q-1.496-.045-2 1.5a146 146 0 0 1-7 15.5q-3.675 3.194-5 8a16.3 16.3 0 0 0-2 5q-2.803 2.301-4 6a5.73 5.73 0 0 0-1 3q-3.445 1.85-4 6-1.556 2.145-2 5-3.361 1.2-3 5-1.76 1.52-2 4-3.663 2.431-4 7-1.76 1.52-2 4-3.361 1.2-3 5-1.76 1.52-2 4-1.494-.128-2.5 1a58 58 0 0 1-2.5 8q-3.663 2.431-4 7-1.76 1.52-2 4-3.646 2.319-4 7a160 160 0 0 0-6.5 5 140 140 0 0 0-27.5 0q-3.756-.975-4-5 3.973-2.868 4-8 1.556-2.145 2-5 3.973-2.868 4-8a16.3 16.3 0 0 0 2-5q3.361-1.2 3-5a5.73 5.73 0 0 0 1-3q3.852-2.371 4-7l2-5q3.406-3.168 4-8a16.3 16.3 0 0 0 2-5q3.089-2.649 4-7a16.3 16.3 0 0 0 2-5q2.625-1.739 3-5 1.844-2.696 2-6 4.187-4.002 5-10 1.257-.513 1-2a90.6 90.6 0 0 0 7-11 71 71 0 0 0 3-9q1.438-.679 2.5-2a307 307 0 0 1 7.5-18q1.257-.513 1-2 3.663-2.431 4-7l2-5q2.618-2.3 3-6 1.76-1.52 2-4 2.862-1.479 3-5a16.3 16.3 0 0 0 2-5q3.297.137 1-2a98.4 98.4 0 0 0 11-21q2.862-1.479 3-5 1.258-.513 1-2 3.132-2.754 4-7 1.556-2.145 2-5 1.438-.679 2.5-2a31.8 31.8 0 0 0 2.5-7q8.566-6.219-1.5-9a617 617 0 0 1-55.5 0 41.5 41.5 0 0 1 1-8 43.2 43.2 0 0 0 2-11q3.895-6.215 4-14v-1q1.36-3.235 2-7v-1q1.724-.436 2-2.5.865-3.206 1-6.5a88 88 0 0 0 2-9v-1q.925.166 1.5 1 .915-4.991 1.5-10a53.8 53.8 0 0 0 2-10q2.2-1.27 2.5-4a559 559 0 0 1 7.5-31q1.7-4.305 2-9 .925-.166 1.5-1a71 71 0 0 0 1.5-9q2.12-4.078 2-9 .925-.166 1.5-1a103.3 103.3 0 0 0 3.5-17q4.574-7.738 5-17 1.201-2.312 1-5 1.99-1.95 4-4 1.772-2.453 0-5a7.25 7.25 0 0 1 2-2.5 2873 2873 0 0 1 125-1.5q17.995.865 36 1.5 1.884.625 2 2.5m-177 2q2.802 1.929.5 4-2.652-1.773-.5-4m-5 10q1.314-.197 2 1-3.117 7.416-2-1m-15 19q1.862 3.646 3.5 0 1.737.747 2.5 2.5-5.902 9.113-6-2.5m-1 23q-3.17 1.29-3.5 5-.634-2.184-2.5-1.5a26.2 26.2 0 0 1 0 8.5q-3.874 2.227-4 7a16.3 16.3 0 0 0-2 5q-5.745-.007-3 5-1.356 1.063-1 3-4.527 2.032-4 7-1.257.513-1 2-4.971 4.852-6 12-4.44 3.228-5 9-1.257.513-1 2-.925-.166-1.5-1a110 110 0 0 0-2.5 8q-1.356 1.063-1 3-1.314-.197-2 1a2535 2535 0 0 0-3 8q-.975.456-2 1a165 165 0 0 1-10 22q-3.973 2.868-4 8-2.406 1.18-2 4-3.646 2.319-4 7-1.356 1.063-1 3-.925-.166-1.5-1-1.514 2.288-1.5 5-1.556 2.145-2 5-3.663 2.431-4 7a16.3 16.3 0 0 0-2 5q-9.207 13.395-15.5 29-4.498 7.177-8.5 13a6.85 6.85 0 0 0-1 4q-1.76 1.52-2 4-4 1.5 0 3h1q.549 1.792 2.5 2 7.045-1.36 13.5-1h2a798 798 0 0 0 37 2v3q-1.303 3.325-1 7-3.745 5.75-4 13v2q-2.135 3.022-2 7v2q-3.898 6.27-4 14v2q-4.469 10.94-6 23a19.2 19.2 0 0 0-1 6q-2.914 3.707-3 9a41.5 41.5 0 0 0-1 8q-2.12 4.079-2 9v1q-.925.166-1.5 1a224 224 0 0 0-2.5 17q-1.426 2.128-1 5-1.79.705-2 3a73 73 0 0 0-2 15q-1.442 2.648-1 6-1.724.436-2 2.5a36 36 0 0 0-1 9.5 6194 6194 0 0 1-149 1 366 366 0 0 1-17-1.5l-2-2a219 219 0 0 1 4.5-8.5l1 1a110 110 0 0 0 2.5-8q.975-.456 2-1a349 349 0 0 0 9.5-16q2.5 1.26.5-1.5 2.928-2.118 4-5.5l1-2a412 412 0 0 1 14.5-21 69 69 0 0 0 2.5-6q3.444-1.85 4-6 4.495-5.933 9-12a32 32 0 0 0 3-7 703 703 0 0 0 17-22.5l-1-1a34.3 34.3 0 0 0 6.5-10.5l1 1a283 283 0 0 1 9.5-17q3.745-.944 4-5l1-2q3.483-1.953 4-6 2.11-.71 2-3a2215 2215 0 0 0 59.5-90q6.81-6.308 10-15a113 113 0 0 1 7.5-8.5 3.65 3.65 0 0 1-1-1.5q4.013-3.02 5-8 3.6-2.695 5-7a5.73 5.73 0 0 0 1-3q4.279-2 5-7 4.279-2 5-7 1.257-.513 1-2 3.445-1.85 4-6a18.5 18.5 0 0 0 3.5-2 387 387 0 0 1 13-23 39.6 39.6 0 0 0 9.5-14 32 32 0 0 0 4-2.5 3.65 3.65 0 0 1-1-1.5 13 13 0 0 1 4-4.5q-.834-.574-1-1.5 2.11-.71 2-3 3.178-1.222 6-3.5-1.32-2.034-1-4.5a10.1 10.1 0 0 0 4-1.5q1.344-7.591 9-6.5a24.4 24.4 0 0 1-1.5 10q-1.848-4.095-2.5.5a54 54 0 0 0 1 4.5" style="opacity:1"/><path fill="#616161" d="M339.5 332.5q-.87 3.373-4 5 .87-3.373 4-5" style="opacity:1"/><path fill="#f2f2f2" d="M1020.5 333.5c-.58 2.831-1.91 5.164-4 7v-3c1.41-.473 2.07-1.473 2-3 .67-.333 1.33-.667 2-1" style="opacity:1"/><path fill="#969696" d="M1016.5 337.5v3c.17.992-.16 1.658-1 2-.67.333-1.33.667-2 1q.735-3.479 3-6" style="opacity:1"/><path fill="#e9e9e9" d="M1015.5 342.5c-.22 3.046-1.56 5.379-4 7 .33-1.333.67-2.667 1-4-.17-.992.16-1.658 1-2 .67-.333 1.33-.667 2-1" style="opacity:1"/><path fill="#8d8c8d" d="M1012.5 345.5c-.33 1.333-.67 2.667-1 4a16.3 16.3 0 0 1-2 5c-.67.333-1.33.667-2 1 .63-3.931 2.3-7.265 5-10" style="opacity:1"/><path fill="#ededed" d="M1009.5 354.5a42 42 0 0 1-1.5 5q-.57-.834-1.5-1v-2c0-.667.33-1 1-1 .67-.333 1.33-.667 2-1" style="opacity:1"/><path fill="#ccc" d="M323.5 351.5a197 197 0 0 0-8.5 14 18.5 18.5 0 0 1-3.5 2 4453 4453 0 0 0 9.5-15q1.006-1.129 2.5-1" style="opacity:1"/><path fill="#b2b2b2" d="M1006.5 356.5v2q-1.485 3.969-3 8c-.46.798-1.12 1.131-2 1 .72-4.189 2.39-7.855 5-11" style="opacity:1"/><path fill="#e7e7e7" d="M311.5 367.5q-.87 3.373-4 5 .255-4.056 4-5" style="opacity:1"/><path fill="#9b9a9b" d="M1001.5 367.5q-2.603 8.883-8 16l-2 1a70.2 70.2 0 0 1 7.5-16c.671-.752 1.5-1.086 2.5-1" style="opacity:1"/><path fill="#e4e4e4" d="M993.5 383.5a18.5 18.5 0 0 1-4 6q-.162-3.02 2-5z" style="opacity:1"/><path fill="#d4d4d4" d="M989.5 389.5q-.66 5.628-5 9 .575-5.658 5-9" style="opacity:1"/><path fill="#454545" d="M288.5 399.5q-2.562 6.108-8 10a45.3 45.3 0 0 1 8-10" style="opacity:1"/><path fill="#d7d7d8" d="M307.5 372.5a197 197 0 0 0-8.5 14q-6.715 5.494-10.5 13a45.3 45.3 0 0 0-8 10q-2.11.71-2 3-1 0-1 1-2.57 1.703-2 5h-1q-.814-.09-1-1a51.6 51.6 0 0 1 7.5-13 404 404 0 0 0 26.5-32" style="opacity:1"/><path fill="#b1b1b1" d="M984.5 398.5a206 206 0 0 1-13 24l-2 1a273 273 0 0 0 8.5-17 53.6 53.6 0 0 1 6.5-8" style="opacity:1"/><path fill="#111" d="M278.5 412.5v4q126.753-.499 253 1-127.504.5-255-1a5.58 5.58 0 0 0 1-3q0-1 1-1" style="opacity:1"/><path fill="#393939" d="M277.5 413.5a5.58 5.58 0 0 1-1 3q127.496 1.5 255 1 2.872-.426 5 1h-261q-.57-3.297 2-5" style="opacity:1"/><path fill="#3a3a3a" d="M684.5 418.5a5346 5346 0 0 1 179-.5q1.419 3.447-2 5.5v-1q1.1-1.812 1-4z" style="opacity:1"/><path fill="#f6f6f6" d="M274.5 418.5h262a54 54 0 0 1-8 15l-2 1a56.7 56.7 0 0 1 6-12 3.65 3.65 0 0 0-1-1.5 1180 1180 0 0 0-62.5-1.5q-94.63 1.215-188.5 1-3.448-.149-6-2" style="opacity:1"/><path fill="#f0f0f0" d="M684.5 418.5h178q.1 2.188-1 4l-2 1q-.116-1.875-2-2.5a2808 2808 0 0 1-36-1.5q-62.844-.606-125 1.5a7.25 7.25 0 0 0-2 2.5q1.772 2.547 0 5-2.01 2.05-4 4a94 94 0 0 1 1.5-12 22.8 22.8 0 0 0-4.5 9 54.6 54.6 0 0 0-7 12q-2.348 3.014-3 7-1.556 2.145-2 5-2.322.482-2 3-2.262 2.521-3 6a169 169 0 0 1-9 15 54 54 0 0 1-1-4.5q.652-4.595 2.5-.5a24.4 24.4 0 0 0 1.5-10q-7.656-1.091-9 6.5a10.1 10.1 0 0 1-4 1.5v-2a41 41 0 0 1 5-7h1a5.73 5.73 0 0 0 1-3q1.884-5.274 6-9 2.11-.71 2-3 2.11-.71 2-3 .648-1.815 2-3 2.74-2.47 4-6 0-1 1-1 2.625-1.739 3-5 3.023-5.053 6-10m-2 7q-2.152 2.227.5 4 2.302-2.071-.5-4m-5 10q-1.117 8.416 2 1-.686-1.197-2-1m-15 19q.098 11.613 6 2.5-.763-1.753-2.5-2.5-1.638 3.646-3.5 0" style="opacity:1"/><path fill="#ececec" d="M971.5 422.5q-.375 3.261-3 5v-2l1-2z" style="opacity:1"/><path fill="#979798" d="M861.5 422.5v1q-1.145 2.802-3 5v-3q-.258-1.488 1-2z" style="opacity:1"/><path fill="#efefef" d="M858.5 425.5v3q-1.855 2.198-3 5l-2 1q1.365-5.238 5-9" style="opacity:1"/><path fill="#959595" d="M968.5 425.5v2q.841 2.349-2 4l-2 1q.868-4.246 4-7" style="opacity:1"/><path fill="#7f7f7f" d="M678.5 428.5q-.375 3.261-3 5 .375-3.261 3-5" style="opacity:1"/><path fill="#676767" d="M690.5 432.5q.201 2.688-1 5l-2 3a33.7 33.7 0 0 1 2-10.5q-.275-2.526-2-.5a22.8 22.8 0 0 1 4.5-9 94 94 0 0 0-1.5 12" style="opacity:1"/><path fill="#e9eaea" d="M966.5 431.5a40 40 0 0 0-2.5 8q-.575-.834-1.5-1l1-4q-.258-1.488 1-2z" style="opacity:1"/><path fill="#727272" d="M674.5 434.5q-1.26 3.53-4 6 .517-4.047 4-6" style="opacity:1"/><path fill="#d1d1d1" d="m855.5 433.5-5 10-2 1q1.3-5.744 5-10z" style="opacity:1"/><path fill="#8d8d8d" d="m963.5 434.5-1 4q-.24 2.48-2 4l-2 1q1.365-5.238 5-9" style="opacity:1"/><path fill="#f5f5f5" d="M960.5 442.5q-.138 3.522-3 5l1-4z" style="opacity:1"/><path fill="#686868" d="M668.5 443.5q.11 2.29-2 3-.11-2.29 2-3" style="opacity:1"/><path fill="#cfcfcf" d="M689.5 437.5q-.426 9.262-5 17a19.2 19.2 0 0 1 1-6q.098-4.392 2-8z" style="opacity:1"/><path fill="#7a7a7a" d="M666.5 446.5q.11 2.29-2 3-.11-2.29 2-3" style="opacity:1"/><path fill="#6a696a" d="M680.5 441.5q-.078 4.27-3 7 .652-3.986 3-7" style="opacity:1"/><path fill="#757575" d="M850.5 443.5q-.868 4.246-4 7v-2q.24-2.48 2-4z" style="opacity:1"/><path fill="#e8e8e8" d="M846.5 448.5v2q-1.76 1.52-2 4l-2 1q.337-4.569 4-7" style="opacity:1"/><path fill="#4d4d4d" d="M685.5 448.5a19.2 19.2 0 0 0-1 6 11.45 11.45 0 0 1-3 5l2-9q.37-1.82 2-2" style="opacity:1"/><path fill="#7b7b7b" d="M675.5 453.5q-.648 1.815-2 3-.322-2.518 2-3" style="opacity:1"/><path fill="#7e7e7e" d="M844.5 454.5q-.375 3.261-3 5v-1q-.356-1.937 1-3z" style="opacity:1"/><path fill="#e3e3e3" d="M841.5 458.5v1l-3 6-2 1a40 40 0 0 0 2.5-8q1.155 1.647 2.5 0" style="opacity:1"/><path fill="#a7a6a7" d="m958.5 443.5-1 4q-11.966 24.354-27 49a28.5 28.5 0 0 1 4-11 22300 22300 0 0 0 24-42" style="opacity:1"/><path fill="#6c6c6c" d="M658.5 458.5a5.73 5.73 0 0 1-1 3h-1q-.11-2.29 2-3" style="opacity:1"/><path fill="#c3c3c3" d="M684.5 454.5a103.3 103.3 0 0 1-3.5 17q-.575.834-1.5 1l1-6a51.6 51.6 0 0 1 1-7 11.45 11.45 0 0 0 3-5" style="opacity:1"/><path fill="#edeced" d="M835.5 469.5v1a5.73 5.73 0 0 0-1 3h-2a43 43 0 0 1 1.5-5q.575.834 1.5 1" style="opacity:1"/><path fill="#747474" d="M838.5 465.5q-.375 3.261-3 5v-1q-.356-1.937 1-3z" style="opacity:1"/><path fill="#777778" d="M651.5 468.5v2a10.2 10.2 0 0 1-3 3q.375-3.261 3-5" style="opacity:1"/><path fill="#f0f0f0" d="M651.5 470.5q-.32 2.466 1 4.5-2.822 2.278-6 3.5v-2q.648-1.815 2-3a10.2 10.2 0 0 0 3-3" style="opacity:1"/><path fill="#b4b4b4" d="M528.5 433.5a2623 2623 0 0 0-29.5 55 11.4 11.4 0 0 0-2.5 2 94.2 94.2 0 0 1-8.5 18 55.4 55.4 0 0 1-5.5 6q21.599-41.278 44-80z" style="opacity:1"/><path fill="#3d3d3d" d="M670.5 462.5a75 75 0 0 1-4 11 80 80 0 0 0-6 8l1-4a169 169 0 0 0 9-15" style="opacity:1"/><path fill="#7f7f7f" d="m680.5 466.5-1 6q.12 4.922-2 9l-2 1q1.137-8.581 5-16" style="opacity:1"/><path fill="#878787" d="M832.5 473.5h2q-1.458 3.948-4 7v-2a16.3 16.3 0 0 1 2-5" style="opacity:1"/><path fill="#6d6d6d" d="M646.5 476.5v2l-2 1q-.11-2.29 2-3" style="opacity:1"/><path fill="#f1f1f1" d="M646.5 478.5q.11 2.29-2 3v-2z" style="opacity:1"/><path fill="#f0f0f0" d="M830.5 478.5v2q-1.76 1.52-2 4h-2q.556-4.15 4-6" style="opacity:1"/><path fill="#7d7d7d" d="M644.5 479.5v2l-2 1q-.11-2.29 2-3" style="opacity:1"/><path fill="#f4f4f4" d="m661.5 477.5-1 4-1 2a38.5 38.5 0 0 0-4 6 26.2 26.2 0 0 0 0-8.5q1.866-.684 2.5 1.5.33-3.71 3.5-5" style="opacity:1"/><path fill="#e0e0e0" d="M677.5 481.5a71 71 0 0 1-1.5 9q-.575.834-1.5 1 .306-4.527 1-9z" style="opacity:1"/><path fill="#727272" d="M641.5 484.5q-.789 2.596-3 4 .081-3.198 3-4" style="opacity:1"/><path fill="#747474" d="M659.5 483.5q-.594 4.832-4 8v-2a38.5 38.5 0 0 1 4-6" style="opacity:1"/><path fill="#6f6f6f" d="M826.5 484.5h2q-.892 4.225-4 7v-2a16.3 16.3 0 0 1 2-5" style="opacity:1"/><path fill="#ebebeb" d="M655.5 489.5v2l-2 4-2 1q.126-4.773 4-7" style="opacity:1"/><path fill="#dbdbdb" d="M824.5 489.5v2q-2.055 2.625-3 6l-2 1q.627-5.774 5-9" style="opacity:1"/><path fill="#868686" d="M674.5 491.5q-.3 4.695-2 9h-2q.84-3.451 1.5-7 .625-1.884 2.5-2" style="opacity:1"/><path fill="#6b6b6b" d="M653.5 495.5q-.594 4.832-4 8v-2a16.3 16.3 0 0 1 2-5z" style="opacity:1"/><path fill="#eeeeef" d="M649.5 501.5v2a5.73 5.73 0 0 0-1 3h-2q-2.745-5.007 3-5" style="opacity:1"/><path fill="#646464" d="M821.5 497.5q-.915 2.901-3 5v-2q-.258-1.488 1-2z" style="opacity:1"/><path fill="#bfbfbf" d="M818.5 500.5v2a59.2 59.2 0 0 1-6 11l-2 1a6.85 6.85 0 0 1 1-4 53 53 0 0 1 7-10" style="opacity:1"/><path fill="#959595" d="M646.5 506.5h2q-.789 2.596-3 4v-1q-.356-1.937 1-3" style="opacity:1"/><path fill="#484848" d="M669.5 506.5q-.332 3.851-2 7-.494-4.093 2-7" style="opacity:1"/><path fill="#f4f4f4" d="M645.5 509.5v1a16.3 16.3 0 0 0-2 5l-2 1q-.527-4.968 4-7" style="opacity:1"/><path fill="#e1e1e1" d="M810.5 514.5q-.24 2.48-2 4-.406-2.82 2-4" style="opacity:1"/><path fill="#d9d9d9" d="M644.5 481.5q.166.926 1 1.5a13 13 0 0 0-4 4.5 3.65 3.65 0 0 0 1 1.5 32 32 0 0 1-4 2.5 39.6 39.6 0 0 1-9.5 14 387 387 0 0 0-13 23 18.5 18.5 0 0 1-3.5 2v-2a22995 22995 0 0 1 26-40q2.211-1.404 3-4l1-2z" style="opacity:1"/><path fill="#dfdfdf" d="m808.5 518.5-1 4q-.648 1.815-2 3h-1q.126-4.773 4-7" style="opacity:1"/><path fill="#727272" d="M643.5 515.5q-1.169 4.567-4 8a20.7 20.7 0 0 0 1-5q-.257-1.487 1-2z" style="opacity:1"/><path fill="#5c5c5d" d="M812.5 513.5q-1.365 5.238-5 9l1-4q1.76-1.52 2-4z" style="opacity:1"/><path fill="#dadada" d="M640.5 518.5a20.7 20.7 0 0 1-1 5q-2.046 2.58-3 6-.686 1.197-2 1 1.029-7.148 6-12" style="opacity:1"/><path fill="#d1d1d1" d="M482.5 514.5a93 93 0 0 0-4.5 12q-1.006 1.129-2.5 1 1.569-7.644 7-13" style="opacity:1"/><path fill="#a1a1a1" d="M930.5 496.5a3145 3145 0 0 1-30 56h-2a1586 1586 0 0 1 25-47q3.055-5.03 7-9" style="opacity:1"/><path fill="#c5c5c5" d="M670.5 500.5h2a559 559 0 0 0-7.5 31q-.3 2.73-2.5 4a19.2 19.2 0 0 1 1-6q1.098-8.39 4-16 1.668-3.149 2-7a19.2 19.2 0 0 0 1-6" style="opacity:1"/><path fill="#e3e3e3" d="m804.5 525.5-2 6q-1.267 1.757-2 4h-2q1.497-6.008 6-10" style="opacity:1"/><path fill="#585858" d="M804.5 525.5h1q.059 3.884-3 6z" style="opacity:1"/><path fill="#e4e4e4" d="M475.5 527.5a16.3 16.3 0 0 1-2 5l-2 1q.556-4.15 4-6" style="opacity:1"/><path fill="#6b6b6b" d="M612.5 528.5v2l-2 1q-.11-2.29 2-3" style="opacity:1"/><path fill="#dfdfdf" d="M634.5 530.5a71 71 0 0 1-3 9h-2q.56-5.772 5-9" style="opacity:1"/><path fill="#e4e4e4" d="M612.5 530.5q-.555 4.15-4 6v-1q.35-2.343 2-4z" style="opacity:1"/><path fill="#e3e3e3" d="m471.5 534.5-1 4q-1.352 1.185-2 3l-2 1q.302-5.445 5-8" style="opacity:1"/><path fill="#505050" d="M473.5 532.5q-.382 3.7-3 6l1-4v-1z" style="opacity:1"/><path fill="#e8e8e8" d="m798.5 536.5-3 8a38.6 38.6 0 0 0-6 10h-1q3.227-7.46 6.5-15a14.7 14.7 0 0 1 3.5-3" style="opacity:1"/><path fill="#878787" d="M608.5 535.5v1q.257 1.487-1 2l-2 1q.081-3.198 3-4" style="opacity:1"/><path fill="#e3e3e3" d="M607.5 538.5q-.721 5-5 7 .738-3.478 3-6z" style="opacity:1"/><path fill="#f4f4f4" d="M628.5 541.5v2q-1.267 1.757-2 4l-2 1a110 110 0 0 1 2.5-8q.575.834 1.5 1" style="opacity:1"/><path fill="#7e7e7e" d="M629.5 539.5h2q-.789 2.596-3 4v-2q-.257-1.487 1-2" style="opacity:1"/><path fill="#868686" d="M663.5 529.5a19.2 19.2 0 0 0-1 6 53.8 53.8 0 0 1-2 10l-2 2a110 110 0 0 1 3.5-17q.575-.834 1.5-1" style="opacity:1"/><path fill="#828282" d="M468.5 541.5q-.868 4.246-4 7v-2q.24-2.48 2-4z" style="opacity:1"/><path fill="#363637" d="M798.5 535.5h2q-.617 5.75-5 9l3-8z" style="opacity:1"/><path fill="#dbdbdb" d="M464.5 546.5v2q-.936 3.381-4 5 .354-4.681 4-7" style="opacity:1"/><path fill="#f4f4f4" d="M660.5 545.5q-.585 5.009-1.5 10-.575-.834-1.5-1a51.6 51.6 0 0 1 1-7z" style="opacity:1"/><path fill="#c9c9c9" d="M602.5 545.5q-.721 5-5 7v-1q1.104-4.23 5-6" style="opacity:1"/><path fill="#8b8b8b" d="M626.5 547.5q-.594 4.832-4 8l1-4q-.356-1.937 1-3z" style="opacity:1"/><path fill="#e3e3e3" d="m623.5 551.5-1 4q-.967 3.49-4 5 1.48-3.968 3-8 .686-1.197 2-1" style="opacity:1"/><path fill="#787878" d="M597.5 551.5v1a5.73 5.73 0 0 1-1 3l-2 1q.375-3.261 3-5" style="opacity:1"/><path fill="#f6f6f6" d="M898.5 552.5h2q-.789 2.596-3 4z" style="opacity:1"/><path fill="#474647" d="M658.5 547.5a51.6 51.6 0 0 0-1 7v1l-2 2q-.318-5.768 3-10" style="opacity:1"/><path fill="#939393" d="M788.5 554.5h1q-.081 3.198-3 4 .24-2.48 2-4" style="opacity:1"/><path fill="#adadae" d="M897.5 556.5a276 276 0 0 0-9.5 20l-1-1q-3.126 8.759-8.5 16l-2 1a558 558 0 0 1 14.5-28q2.864-4.5 6.5-8" style="opacity:1"/><path fill="#dedede" d="M596.5 555.5q-1.4 4.305-5 7 .738-3.478 3-6z" style="opacity:1"/><path fill="#c6c6c7" d="M460.5 553.5q-1.327 6.548-6 11 1.08-6.668 6-11" style="opacity:1"/><path fill="#89888a" d="M657.5 555.5a88 88 0 0 1-2 9h-2q.64-3.765 2-7z" style="opacity:1"/><path fill="#e1e1e1" d="m454.5 564.5-2 6h-2q.183-4.188 4-6" style="opacity:1"/><path fill="#bdbdbd" d="M786.5 558.5q-1.48 3.968-3 8-.686 1.197-2 1 1.48-3.968 3-8 .686-1.197 2-1" style="opacity:1"/><path fill="#dbdadb" d="M653.5 564.5h2a29.5 29.5 0 0 1-1 6.5q-.276 2.064-2 2.5a29.2 29.2 0 0 1 1-9" style="opacity:1"/><path fill="#e3e3e3" d="M781.5 567.5q-.584 5.676-5 9 1.48-3.968 3-8 .686-1.197 2-1" style="opacity:1"/><path fill="#babbbb" d="M618.5 560.5q-3.743 13.81-12 25v-2a165 165 0 0 0 10-22q1.025-.544 2-1" style="opacity:1"/><path fill="#c2c2c2" d="M450.5 570.5h2a61.8 61.8 0 0 1-7 11h-1q1.758-6.237 6-11" style="opacity:1"/><path fill="#aeaeae" d="M652.5 574.5q-.64 3.765-2 7v-6z" style="opacity:1"/><path fill="#e9e9e9" d="M776.5 576.5q-1.115 5.418-5 9a110 110 0 0 1 2.5-8q1.006-1.129 2.5-1" style="opacity:1"/><path fill="#555455" d="M650.5 575.5v7h-2q.64-3.765 2-7" style="opacity:1"/><path fill="#ebebeb" d="M444.5 581.5q-.24 2.48-2 4-.406-2.82 2-4" style="opacity:1"/><path fill="#b6b5b6" d="M591.5 562.5q-.987 4.98-5 8a3.65 3.65 0 0 0 1 1.5 113 113 0 0 0-7.5 8.5q-3.19 8.692-10 15a2215 2215 0 0 1-59.5 90q-2.11.71-2 3l-2 1a1950 1950 0 0 0 40-62 910 910 0 0 0 38.5-58q2.578-4.182 6.5-7" style="opacity:1"/><path fill="#eaeaea" d="M606.5 583.5v2q-1.237 3.465-4 6 .027-5.132 4-8" style="opacity:1"/><path fill="#565657" d="M444.5 581.5h1q.058 3.884-3 6v-2q1.76-1.52 2-4" style="opacity:1"/><path fill="#e9e9e9" d="M442.5 585.5v2q-1.258.513-1 2l-2 1q.138-3.521 3-5" style="opacity:1"/><path fill="#d9d9d9" d="M771.5 585.5q-.24 2.48-2 4-.406-2.82 2-4" style="opacity:1"/><path fill="#d6d6d6" d="M648.5 582.5h2q-.105 7.785-4 14v-2a189 189 0 0 1 2-12" style="opacity:1"/><path fill="#ebeaeb" d="m769.5 589.5-1 4h-2q.081-3.198 3-4" style="opacity:1"/><path fill="#f8f8f8" d="M602.5 591.5q-.24 2.48-2 4-.406-2.82 2-4" style="opacity:1"/><path fill="#f3f3f3" d="M878.5 591.5q-.375 3.261-3 5v-1a5.73 5.73 0 0 1 1-3z" style="opacity:1"/><path fill="#8c8c8c" d="M875.5 595.5v1q-.733 2.243-2 4l-2 1q.556-4.15 4-6" style="opacity:1"/><path fill="#7c7c7c" d="M766.5 593.5h2q-.892 4.225-4 7v-2a16.3 16.3 0 0 1 2-5" style="opacity:1"/><path fill="#d0d0d0" d="M600.5 595.5a29.4 29.4 0 0 1-2 7h-2q.354-4.681 4-7" style="opacity:1"/><path fill="#ececec" d="M764.5 598.5v2q-1.258.513-1 2-2.11.71-2 3h-1q.126-4.773 4-7M873.5 600.5q-.912 4.36-4 7v-3q1.352-1.185 2-3z" style="opacity:1"/><path fill="#ededed" d="M595.5 605.5v1q-1.356 1.063-1 3h-2q-.014-2.712 1.5-5 .575.834 1.5 1" style="opacity:1"/><path fill="#787578" d="M763.5 602.5q.11 2.29-2 3-.11-2.29 2-3" style="opacity:1"/><path fill="#818081" d="M596.5 602.5h2q-.789 2.596-3 4v-1q-.356-1.937 1-3" style="opacity:1"/><path fill="#9e9e9e" d="M646.5 594.5v2a43.2 43.2 0 0 1-2 11l-2 1q.67-7.73 4-14" style="opacity:1"/><path fill="#d3d2d3" d="m759.5 607.5-1 4q-1.556 2.145-2 5h-2q.584-5.676 5-9" style="opacity:1"/><path fill="#aaa" d="M441.5 589.5a397 397 0 0 1-13 23q-.686 1.197-2 1a258 258 0 0 1 13-23z" style="opacity:1"/><path fill="#e8e8e8" d="M644.5 607.5a41.5 41.5 0 0 0-1 8q27.857 1.248 55.5 0 10.066 2.781 1.5 9a20.7 20.7 0 0 0 1-5 8567 8567 0 0 0-59-2.5q-1.255-1.517-1-3.5a20.7 20.7 0 0 1 1-5z" style="opacity:1"/><path fill="#5c5c5c" d="M760.5 605.5h1q-.382 3.7-3 6l1-4q-.258-1.487 1-2" style="opacity:1"/><path fill="#b0b0b0" d="M869.5 604.5v3a1379 1379 0 0 0-40.5 76q-1.062 1.321-2.5 2a54.5 54.5 0 0 1 4-11 2651 2651 0 0 0 39-70" style="opacity:1"/><path fill="#969596" d="M592.5 609.5h2q-.967 3.49-4 5 .444-2.855 2-5" style="opacity:1"/><path fill="#e3e3e3" d="M590.5 614.5a29.4 29.4 0 0 1-2 7h-2q.337-4.569 4-7" style="opacity:1"/><path fill="#f1f1f1" d="M426.5 613.5q.1 2.188-1 4l-2 1q.375-3.261 3-5" style="opacity:1"/><path fill="#414041" d="M641.5 613.5q-.255 1.983 1 3.5 29.745 1.159 59 2.5a659 659 0 0 1-60-1.5q-1.952-2.424 0-4.5" style="opacity:1"/><path fill="#ececec" d="M753.5 618.5v2q-1.258.513-1 2l-2 1q-.361-3.8 3-5" style="opacity:1"/><path fill="#696869" d="M754.5 616.5h2q-.789 2.596-3 4v-2q-.258-1.487 1-2" style="opacity:1"/><path fill="#909090" d="M425.5 617.5a33 33 0 0 0-2.5 6q-1.006 1.129-2.5 1 .738-3.478 3-6z" style="opacity:1"/><path fill="#8e8d8e" d="M752.5 622.5q-1.2 3.11-4 5-.406-2.82 2-4z" style="opacity:1"/><path fill="#737373" d="M586.5 621.5h2q-.892 4.225-4 7v-2a16.3 16.3 0 0 1 2-5" style="opacity:1"/><path fill="#e7e7e7" d="m748.5 627.5-2 6h-2q.2-4.299 4-6" style="opacity:1"/><path fill="#cfcfcf" d="M700.5 624.5a31.8 31.8 0 0 1-2.5 7q-1.062 1.321-2.5 2 .575-5.658 5-9" style="opacity:1"/><path fill="#bfbfc1" d="M420.5 624.5q-.584 5.676-5 9a207 207 0 0 1 3-8q.686-1.197 2-1" style="opacity:1"/><path fill="#c6c5c6" d="M584.5 626.5v2a1217 1217 0 0 0-23 44h-2a6.85 6.85 0 0 1 1-4q4.002-5.823 8.5-13 6.293-15.605 15.5-29" style="opacity:1"/><path fill="#989798" d="M695.5 633.5q-.444 2.855-2 5l-2 1q.556-4.15 4-6" style="opacity:1"/><path fill="#ebebeb" d="m744.5 634.5-2 6q-1.258.513-1 2l-3 2q1.139-6.202 6-10" style="opacity:1"/><path fill="#484848" d="M744.5 633.5h2q-.911 4.351-4 7l2-6z" style="opacity:1"/><path fill="#b4b4b4" d="M415.5 633.5a158 158 0 0 1-3.5 9 464 464 0 0 0-8.5 14l-3 2a78.8 78.8 0 0 0 7.5-15 80 80 0 0 1 7.5-10" style="opacity:1"/><path fill="#eee" d="M693.5 638.5q-.868 4.246-4 7v-3q2.11-.71 2-3z" style="opacity:1"/><path fill="#828282" d="M689.5 642.5v3q.258 1.487-1 2h-1q-.147-3.08 2-5" style="opacity:1"/><path fill="#dfdfdf" d="M738.5 644.5a50 50 0 0 1-3 9 6.55 6.55 0 0 1-3 3q1.455-6.91 6-12M687.5 647.5h1q-.138 3.521-3 5v-1q.24-2.48 2-4" style="opacity:1"/><path fill="#383838" d="M741.5 642.5a89 89 0 0 0-4 10q-.686 1.197-2 1a50 50 0 0 0 3-9z" style="opacity:1"/><path fill="#ededed" d="m732.5 656.5-2 6-2 1a38 38 0 0 1 2.5-8q.575.834 1.5 1" style="opacity:1"/><path fill="#ddd" d="m400.5 659.5-3 8a6.55 6.55 0 0 1-3 3q1.08-6.668 6-11" style="opacity:1"/><path fill="#333" d="M403.5 656.5a89 89 0 0 0-4 10q-.686 1.197-2 1l3-8v-1z" style="opacity:1"/><path fill="#909090" d="M685.5 651.5v1a98.4 98.4 0 0 1-11 21q-1.257.513-1 2a16.3 16.3 0 0 1-2 5h-1a22.4 22.4 0 0 1 2.5-8 285 285 0 0 0 10.5-20q.686-1.197 2-1" style="opacity:1"/><path fill="#f3f3f3" d="M559.5 672.5q.406 2.82-2 4 .24-2.48 2-4" style="opacity:1"/><path fill="#ededed" d="M674.5 673.5q2.297 2.137-1 2-.257-1.487 1-2" style="opacity:1"/><path fill="#a1a1a2" d="M730.5 662.5a118.7 118.7 0 0 0-10 18v-2q2.447-9.466 8-15z" style="opacity:1"/><path fill="#f9faf9" d="M557.5 676.5v3q-4-1.5 0-3" style="opacity:1"/><path fill="#2f2f2f" d="M559.5 672.5h2q-.989 2.457-2 5 22.484 1.25 45 1.5 1.855.348 3 1.5h-33q-7.71-1.482-16-1h-1v-3q2.406-1.18 2-4" style="opacity:1"/><path fill="#e9e9e9" d="M720.5 678.5v2a10.2 10.2 0 0 1-3 3q.138-3.521 3-5" style="opacity:1"/><path fill="#f6f6f6" d="M558.5 679.5q8.29-.482 16 1-6.455-.36-13.5 1-1.951-.208-2.5-2" style="opacity:1"/><path fill="#eaeaea" d="M576.5 680.5h39v3l-2 2v-3a798 798 0 0 1-37-2" style="opacity:1"/><path fill="#ededed" d="M670.5 680.5h1q-.138 3.521-3 5a5.73 5.73 0 0 1 1-3q-.257-1.487 1-2" style="opacity:1"/><path fill="#bfbfbf" d="M393.5 672.5a158 158 0 0 1-3.5 9 52.3 52.3 0 0 1-6.5 8 70.7 70.7 0 0 1 8-16q.686-1.197 2-1" style="opacity:1"/><path fill="#d2d1d2" d="M717.5 683.5q-.24 2.48-2 4-.406-2.82 2-4" style="opacity:1"/><path fill="#f3f3f3" d="M510.5 685.5q.11 2.29-2 3-.11-2.29 2-3" style="opacity:1"/><path fill="#d0d0d0" d="M715.5 687.5q-1.922 7.844-7 14l-2 1a176 176 0 0 0 7.5-16q.575.834 1.5 1" style="opacity:1"/><path fill="#707070" d="M669.5 682.5a5.73 5.73 0 0 0-1 3q-.24 2.48-2 4h-1q.126-4.773 4-7" style="opacity:1"/><path fill="#f6f6f6" d="M383.5 689.5a16.3 16.3 0 0 1-2 5l-2 1q.556-4.15 4-6" style="opacity:1"/><path fill="#eaeaea" d="M508.5 688.5q-.517 4.047-4 6a5.73 5.73 0 0 1 1-3q-.258-1.487 1-2z" style="opacity:1"/><path fill="#6f6e6f" d="m615.5 683.5-1.5 9q-.575.834-1.5 1v-1q-.303-3.675 1-7z" style="opacity:1"/><path fill="#c1c1c2" d="M826.5 685.5a158 158 0 0 1-3.5 9 66.4 66.4 0 0 0-5.5 10q-.686 1.197-2 1 3.221-11.459 11-20" style="opacity:1"/><path fill="#d9d9d9" d="M665.5 689.5h1q-.382 3.7-3 6v-1a16.3 16.3 0 0 1 2-5" style="opacity:1"/><path fill="#858585" d="M505.5 691.5a5.73 5.73 0 0 0-1 3l-1 2-2 1q.556-4.15 4-6" style="opacity:1"/><path fill="#e2e2e2" d="M612.5 692.5v1a33.7 33.7 0 0 1-2 9l-2 3q.255-7.25 4-13" style="opacity:1"/><path fill="#939294" d="M381.5 694.5q-.556 4.15-4 6 .444-2.855 2-5z" style="opacity:1"/><path fill="#e7e7e8" d="M503.5 696.5q-.255 4.056-4 5-.406-2.82 2-4z" style="opacity:1"/><path fill="#626263" d="M663.5 694.5v1l-2 5-2 1q.912-4.36 4-7" style="opacity:1"/><path fill="#d9d9d9" d="M661.5 700.5q-.337 4.569-4 7 .156-3.304 2-6z" style="opacity:1"/><path fill="#757575" d="M708.5 701.5q-.738 3.478-3 6v-2q-.356-1.937 1-3z" style="opacity:1"/><path fill="#e2e2e3" d="M705.5 705.5v2q-1.785 3.553-5 6 .302-5.445 5-8" style="opacity:1"/><path fill="#898989" d="M815.5 705.5q-.444 2.855-2 5l-2 1q.556-4.15 4-6" style="opacity:1"/><path fill="#d1d1d1" d="M608.5 707.5q.135 3.978-2 7-.135-3.978 2-7" style="opacity:1"/><path fill="#e8e8e8" d="M813.5 710.5q-.138 3.521-3 5v-1a5.73 5.73 0 0 1 1-3z" style="opacity:1"/><path fill="#bfbfbf" d="M499.5 701.5a283 283 0 0 0-9.5 17l-1-1a34.3 34.3 0 0 1-6.5 10.5l1 1a703 703 0 0 1-17 22.5 4.93 4.93 0 0 1 .5-3 517 517 0 0 0 14.5-23 209 209 0 0 0 15.5-23q1.006-1.128 2.5-1" style="opacity:1"/><path fill="#727273" d="M610.5 702.5q-.416 8.585-4 16v-4q2.135-3.022 2-7v-2z" style="opacity:1"/><path fill="#9d9c9d" d="M656.5 709.5a307 307 0 0 0-7.5 18q-1.062 1.321-2.5 2 1.727-5.468 3.5-11a437 437 0 0 1 6.5-9" style="opacity:1"/><path fill="#ebebeb" d="M606.5 716.5v2a127 127 0 0 1-2 9l-2 3q.102-7.73 4-14" style="opacity:1"/><path fill="#898989" d="M810.5 714.5v1q-.24 2.48-2 4l-2 1q1.197-3.699 4-6" style="opacity:1"/><path fill="#e6e6e6" d="M808.5 719.5q-.337 4.569-4 7v-3q1.352-1.185 2-3z" style="opacity:1"/><path fill="#a8a8a8" d="M377.5 700.5a298 298 0 0 1-9.5 20 214 214 0 0 0-10 17q-1.006 1.128-2.5 1a519 519 0 0 1 14-27 103 103 0 0 1 8-11" style="opacity:1"/><path fill="#c5c5c5" d="M699.5 716.5a145 145 0 0 1-9 19 7.5 7.5 0 0 1-3 2 126.3 126.3 0 0 1 9.5-19q1.063-1.321 2.5-2" style="opacity:1"/><path fill="#8b8b8b" d="M804.5 723.5v3q-.444 2.855-2 5l-2 1q1.444-4.866 4-9" style="opacity:1"/><path fill="#a5a4a5" d="M646.5 729.5a71 71 0 0 1-3 9 90.6 90.6 0 0 1-7 11q2.718-11.438 10-20" style="opacity:1"/><path fill="#e1e1e2" d="M802.5 731.5q-.517 4.047-4 6v-2l2-3z" style="opacity:1"/><path fill="#5b5b5b" d="M604.5 727.5q.267 5.433-2 10v-7z" style="opacity:1"/><path fill="#878788" d="M798.5 735.5v2a5.73 5.73 0 0 1-1 3h-2q1.145-2.802 3-5" style="opacity:1"/><path fill="#c8c8c8" d="M602.5 732.5v5a144 144 0 0 0-4 18h-2q1.531-12.06 6-23" style="opacity:1"/><path fill="#e6e6e6" d="M795.5 740.5h2q-.375 3.261-3 5v-2a5.73 5.73 0 0 1 1-3" style="opacity:1"/><path fill="#b8b8b8" d="m355.5 738.5-2 7q-1.917.423-3 2a31.8 31.8 0 0 1 2.5-7q1.063-1.321 2.5-2" style="opacity:1"/><path fill="#ababab" d="M687.5 737.5a49 49 0 0 1-5.5 14q-1.139 2.344-3.5 3a146 146 0 0 0 7-15.5q.504-1.545 2-1.5" style="opacity:1"/><path fill="#868686" d="M794.5 743.5v2q-.24 2.48-2 4l-2 1q.868-4.246 4-7" style="opacity:1"/><path fill="#575758" d="M353.5 745.5q-1.462 3.442-4 6v-2q-.258-1.487 1-2 1.083-1.577 3-2" style="opacity:1"/><path fill="#e4e4e4" d="M349.5 749.5v2q-1.258.513-1 2h-2q.081-3.198 3-4" style="opacity:1"/><path fill="#eaeaea" d="M792.5 749.5q-.868 4.246-4 7l1-4 1-2z" style="opacity:1"/><path fill="#c8c7c8" d="M466.5 751.5a32 32 0 0 1-3 7 1524 1524 0 0 1-9 12v-2a195 195 0 0 1 9.5-16q1.006-1.128 2.5-1" style="opacity:1"/><path fill="#acacad" d="M635.5 751.5q-.813 5.998-5 10 1.001-6.004 5-10" style="opacity:1"/><path fill="#8d8d8d" d="M346.5 753.5h2q-1.462 3.442-4 6v-2q.24-2.48 2-4" style="opacity:1"/><path fill="#858585" d="m789.5 752.5-1 4a16.3 16.3 0 0 1-2 5h-2q1.361-5.23 5-9" style="opacity:1"/><path fill="#e7e7e7" d="M678.5 754.5a32.5 32.5 0 0 1-3 7l-2 1q1.325-4.806 5-8" style="opacity:1"/><path fill="#dadbdb" d="M344.5 757.5v2q-1.415 4.35-5 7 .627-5.774 5-9" style="opacity:1"/><path fill="#f6f6f6" d="M595.5 761.5a51.6 51.6 0 0 0-1 7v1l-2 1q.086-5.293 3-9" style="opacity:1"/><path fill="#e3e3e3" d="M784.5 761.5h2q-.448 2.933-3 4v-1a5.73 5.73 0 0 1 1-3" style="opacity:1"/><path fill="#4f4f50" d="M596.5 755.5h2q-.631 7.04-4 13a51.6 51.6 0 0 1 1-7 19.2 19.2 0 0 1 1-6" style="opacity:1"/><path fill="#8c8c8c" d="M630.5 761.5q-.156 3.304-2 6h-2q.655-4.088 4-6" style="opacity:1"/><path fill="#767676" d="M675.5 761.5q-.594 4.832-4 8v-2a16.3 16.3 0 0 1 2-5z" style="opacity:1"/><path fill="#737373" d="M783.5 764.5v1q.258 1.487-1 2a10.2 10.2 0 0 1-3 3q.556-4.15 4-6" style="opacity:1"/><path fill="#6a6a6a" d="M454.5 768.5v2l-2 1q-.11-2.29 2-3" style="opacity:1"/><path fill="#dedede" d="M626.5 767.5h2q-.375 3.261-3 5v-1z" style="opacity:1"/><path fill="#e8e7e8" d="M671.5 767.5v2q-1.257.513-1 2l-3 2q1.197-3.699 4-6" style="opacity:1"/><path fill="#ececec" d="M454.5 770.5q-.556 4.15-4 6v-2l2-3z" style="opacity:1"/><path fill="#dddcdd" d="M782.5 767.5q-.62 5.757-5 9v-1a16.3 16.3 0 0 1 2-5 10.2 10.2 0 0 0 3-3" style="opacity:1"/><path fill="#c7c7c7" d="M339.5 766.5q-6.514 13.073-13 26h-2a123 123 0 0 1 9-17q1.866-5.223 6-9" style="opacity:1"/><path fill="#8b8a8c" d="M670.5 771.5q-.87 3.373-4 5a5.73 5.73 0 0 1 1-3z" style="opacity:1"/><path fill="#f9faf9" d="M333.5 775.5q-1-2 0 0" style="opacity:1"/><path fill="#898889" d="M625.5 771.5v1a16.3 16.3 0 0 1-2 5h-2q1.201-3.749 4-6" style="opacity:1"/><path fill="#efefef" d="m666.5 776.5-1 4-3 2q.555-4.15 4-6" style="opacity:1"/><path fill="#959495" d="M777.5 775.5v1q.166.925 1 1.5-2.334 1.08-3 3.5l-3 2q1.797-4.628 5-8" style="opacity:1"/><path fill="#e2e2e2" d="M621.5 777.5h2q-.911 4.351-4 7a29.4 29.4 0 0 1 2-7" style="opacity:1"/><path fill="#ecebec" d="M775.5 781.5a40 40 0 0 0-2.5 8q-.417-1.374-1.5-2-.1-2.188 1-4z" style="opacity:1"/><path fill="#d6d6d6" d="M591.5 778.5q.12 4.921-2 9-.12-4.921 2-9" style="opacity:1"/><path fill="#8a898a" d="M665.5 780.5q-1.666 5.034-5 9v-2q.444-2.855 2-5z" style="opacity:1"/><path fill="#727272" d="M594.5 769.5a136 136 0 0 0-2.5 16q-.36 3.528-2.5 6v-4q2.12-4.079 2-9a41.5 41.5 0 0 1 1-8z" style="opacity:1"/><path fill="#8c8c8c" d="M619.5 784.5a16.3 16.3 0 0 1-2 5h-1q-.361-3.8 3-5" style="opacity:1"/><path fill="#c7c7c7" d="M450.5 774.5v2a69 69 0 0 1-2.5 6 412 412 0 0 0-14.5 21v-2a525 525 0 0 1 17-27" style="opacity:1"/><path fill="#e2e2e2" d="M660.5 787.5v2q-1.257.513-1 2l-2 1q-.361-3.8 3-5" style="opacity:1"/><path fill="#e3e2e3" d="M616.5 789.5h1q-.594 4.832-4 8v-3a27.2 27.2 0 0 1 3-5" style="opacity:1"/><path fill="#7d7d7d" d="M659.5 791.5q-.868 4.246-4 7v-2q.24-2.48 2-4z" style="opacity:1"/><path fill="#d3d3d3" d="M771.5 787.5a43 43 0 0 1-3 8.5 31.7 31.7 0 0 0-5.5 10.5q-1.062 1.321-2.5 2l2-6a90 90 0 0 0 7-14q.686-1.197 2-1" style="opacity:1"/><path fill="#868686" d="M324.5 792.5h2q-.685 3.41-4 4 .24-2.48 2-4" style="opacity:1"/><path fill="#c1c1c1" d="M589.5 788.5v3a146 146 0 0 0-2 12q-.21 2.295-2 3a224 224 0 0 1 2.5-17q.575-.834 1.5-1" style="opacity:1"/><path fill="#ebeaeb" d="M322.5 796.5q-.868 4.246-4 7 .126-4.773 4-7" style="opacity:1"/><path fill="#8c8b8c" d="M613.5 794.5v3l-2 5h-2q1.235-4.47 4-8" style="opacity:1"/><path fill="#ececec" d="M609.5 802.5h2q-.148 4.629-4 7v-3q1.76-1.52 2-4" style="opacity:1"/><path fill="#d3d3d3" d="M655.5 796.5v2q-1.267 1.757-2 4l-2 1q.337-4.569 4-7" style="opacity:1"/><path fill="#919092" d="M433.5 801.5v2l-1 2-2 1q.375-3.261 3-5" style="opacity:1"/><path fill="#f0eff0" d="m318.5 803.5-2 6-3 2q1.404-4.757 5-8" style="opacity:1"/><path fill="#d9d9da" d="M432.5 805.5q-1.072 3.382-4 5.5 2 2.76-.5 1.5a349 349 0 0 1-9.5 16q-1.025.544-2 1l2-5a131 131 0 0 1 12-18z" style="opacity:1"/><path fill="#656565" d="M653.5 802.5q-.868 4.246-4 7v-2q.24-2.48 2-4z" style="opacity:1"/><path fill="#e0e0e0" d="M649.5 807.5v2l-2 3h-1q-.361-3.8 3-5" style="opacity:1"/><path fill="gray" d="m762.5 802.5-2 6q.258 1.487-1 2l-2 1q1.365-5.238 5-9" style="opacity:1"/><path fill="#807e80" d="M607.5 806.5v3a5.73 5.73 0 0 1-1 3l-2 1q1.146-3.777 3-7" style="opacity:1"/><path fill="#878787" d="M316.5 809.5q-.87 3.373-4 5a5.73 5.73 0 0 1 1-3z" style="opacity:1"/><path fill="#e7e7e7" d="M759.5 810.5q-.126 4.773-4 7a5.73 5.73 0 0 1 1-3q-.356-1.937 1-3z" style="opacity:1"/><path fill="#e5e5e5" d="M606.5 812.5q.361 3.8-3 5v-2q-.257-1.487 1-2z" style="opacity:1"/><path fill="#828282" d="M646.5 812.5h1q-.081 3.198-3 4 .24-2.48 2-4" style="opacity:1"/><path fill="#dfdfdf" d="M644.5 816.5q-1.109 5.379-5 9a58 58 0 0 0 2.5-8q1.006-1.128 2.5-1" style="opacity:1"/><path fill="#eaeaea" d="M312.5 814.5a16.3 16.3 0 0 1-2 5l-2 1q.517-4.047 4-6" style="opacity:1"/><path fill="#7b7b7c" d="M603.5 815.5v2a16.3 16.3 0 0 1-2 5l-2 1q.594-4.832 4-8" style="opacity:1"/><path fill="#949494" d="M310.5 819.5q-.517 4.047-4 6v-1q.733-2.243 2-4z" style="opacity:1"/><path fill="#979797" d="M756.5 814.5a5.73 5.73 0 0 0-1 3q-.444 2.855-2 5l-2 1q1.48-3.969 3-8 .686-1.197 2-1" style="opacity:1"/><path fill="#c9c9c9" d="m584.5 811.5-2 17-2 1a73 73 0 0 1 2-15q.21-2.295 2-3" style="opacity:1"/><path fill="#efefef" d="M306.5 824.5v1a5.73 5.73 0 0 1-1 3h-2q.357-2.856 3-4" style="opacity:1"/><path fill="#ebebeb" d="M601.5 822.5q-.027 5.132-4 8l1-4a5.73 5.73 0 0 1 1-3z" style="opacity:1"/><path fill="#f0f0f0" d="M639.5 825.5q-.305 3.277-2 6l-2 1q.337-4.569 4-7" style="opacity:1"/><path fill="#818181" d="m418.5 824.5-2 5-2 1q.517-4.047 4-6" style="opacity:1"/><path fill="#f4f4f4" d="M753.5 822.5q-4.137 12.021-11 22.5 1.755 2.632 5 3l242 1 2 1a20.9 20.9 0 0 0-3.5 6.5 18.5 18.5 0 0 1-3.5 2 16.3 16.3 0 0 1 2-5h1q1.356-1.063 1-3a7877 7877 0 0 1-251-2q2.11-.71 2-3l1-2q2.724-2.427 4-6 1.971-7.943 7-14z" style="opacity:1"/><path fill="#acacac" d="M303.5 828.5h2q-3.006 8.024-9 14a80 80 0 0 1 7-14" style="opacity:1"/><path fill="#8a898a" d="m598.5 826.5-1 4q-.444 2.855-2 5l-2 1q1.382-5.698 5-10" style="opacity:1"/><path fill="#818081" d="M637.5 831.5q-.868 4.246-4 7v-2q.24-2.48 2-4z" style="opacity:1"/><path fill="#d6d6d6" d="M633.5 836.5v2q-.967 3.49-4 5 .354-4.681 4-7" style="opacity:1"/><path fill="#707070" d="M582.5 828.5a98 98 0 0 0-1.5 9q-.56 2.987-2.5 5a51.6 51.6 0 0 0 1-7q-.442-3.352 1-6z" style="opacity:1"/><path fill="#eaeaea" d="M595.5 835.5q-.027 5.132-4 8l1-4a5.73 5.73 0 0 1 1-3z" style="opacity:1"/><path fill="#f2f2f2" d="M416.5 829.5a110 110 0 0 1-2.5 8l-1-1a219 219 0 0 0-4.5 8.5l2 2a366 366 0 0 0 17 1.5q74.496.396 149-1a36 36 0 0 1 1-9.5q.276-2.064 2-2.5a51.6 51.6 0 0 1-1 7 41.5 41.5 0 0 1-1 8 7659 7659 0 0 1-175-1q-.258-1.487 1-2 2.862-1.479 3-5a71 71 0 0 1 8-12z" style="opacity:1"/><path fill="#848485" d="M744.5 837.5q-1.276 3.573-4 6 .556-4.15 4-6" style="opacity:1"/><path fill="#e8e8e8" d="m296.5 842.5-2 6h-2q.517-4.047 4-6" style="opacity:1"/><path fill="#f1f1f1" d="M591.5 843.5q.244 4.025 4 5a140 140 0 0 1 27.5 0 160 160 0 0 1 6.5-5l-2 6q-20.147 1.982-40 0a5.73 5.73 0 0 1 1-3 10.2 10.2 0 0 0 3-3" style="opacity:1"/><path fill="#6f6f6f" d="m592.5 839.5-1 4a10.2 10.2 0 0 1-3 3q.868-4.246 4-7" style="opacity:1"/><path fill="#a1a0a1" d="M406.5 842.5q-.138 3.521-3 5 .375-3.261 3-5" style="opacity:1"/><path fill="#6a6a6a" d="M739.5 845.5q.11 2.29-2 3-.11-2.29 2-3" style="opacity:1"/><path fill="#6e6d6e" d="M402.5 849.5a7659 7659 0 0 0 175 1 3879 3879 0 0 1-176 0q.186-.91 1-1" style="opacity:1"/><path fill="#666" d="M587.5 849.5q19.853 1.982 40 0-9.699 1.995-20.5 2l-20.5-1q.186-.91 1-1" style="opacity:1"/><path fill="#6f6e6f" d="M737.5 848.5a7877 7877 0 0 0 251 2q.356 1.937-1 3a7877 7877 0 0 0-251-2q-.356-1.937 1-3" style="opacity:1"/><path fill="#919191" d="M292.5 848.5h2q-1.276 3.573-4 6v-2q.24-2.48 2-4" style="opacity:1"/><path fill="#1b1b1b" d="M736.5 851.5q126.01-.996 251 2h-1z" style="opacity:1"/><path fill="#eaeaea" d="M290.5 852.5v2q-1.65 1.657-2 4l-2 1a58 58 0 0 0 2.5-8q.574.834 1.5 1" style="opacity:1"/><path fill="#e1e1e1" d="M286.5 859.5q-.24 2.48-2 4-.406-2.82 2-4" style="opacity:1"/><path fill="#ececec" d="M284.5 863.5v2q-1.258.513-1 2l-3 2q.556-4.15 4-6" style="opacity:1"/><path fill="#565656" d="M288.5 858.5q-.868 4.246-4 7v-2q1.76-1.52 2-4z" style="opacity:1"/><path fill="#c0bfc0" d="M984.5 858.5a12559 12559 0 0 0-15.5 25l-1-1a332 332 0 0 0-13.5 20 7.5 7.5 0 0 1-3 2 4.93 4.93 0 0 1 .5-3l30-42q1.006-1.128 2.5-1" style="opacity:1"/><path fill="#7b7b7b" d="M283.5 867.5q-1.26 3.53-4 6v-2q-.258-1.487 1-2z" style="opacity:1"/><path fill="#cfcecf" d="M279.5 871.5v2q-1.45 4.453-5 7 .66-5.628 5-9" style="opacity:1"/><path fill="#ebebeb" d="m274.5 880.5-2 6h-2q.517-4.047 4-6" style="opacity:1"/><path fill="#bbb" d="M270.5 886.5h2a130 130 0 0 0-6.5 12q-1.006 1.128-2.5 1 2.36-7.23 7-13" style="opacity:1"/><path fill="#cdcdcd" d="M263.5 899.5a71 71 0 0 1-3 9h-2q.576-5.658 5-9" style="opacity:1"/><path fill="#6d6d6e" d="M258.5 908.5h2a21.6 21.6 0 0 1-4 5 5.73 5.73 0 0 1 1-3q-.258-1.487 1-2" style="opacity:1"/><path fill="#a6a6a6" d="M257.5 910.5a5.73 5.73 0 0 0-1 3q-3.045 8.13-9 14a893 893 0 0 1 8-16q.686-1.197 2-1" style="opacity:1"/><path fill="#c7c7c7" d="M951.5 904.5a260.6 260.6 0 0 1-22 32 41 41 0 0 1-5 7h-2a1641 1641 0 0 0 26.5-38q1.006-1.128 2.5-1" style="opacity:1"/><path fill="#ebebeb" d="M247.5 927.5a32.5 32.5 0 0 1-3 7l-2 1q.31-5.51 5-8" style="opacity:1"/><path fill="#f9faf9" d="M929.5 936.5q2 1 0 0" style="opacity:1"/><path fill="#868686" d="M244.5 934.5q-.868 4.246-4 7v-2q.24-2.48 2-4z" style="opacity:1"/><path fill="#e2e2e2" d="M240.5 939.5v2q-1.426 2.128-1 5h220a651 651 0 0 1-51 1 81920 81920 0 0 1-156.5 2q-7.23-.93-14.5-1.5l-1-1a20.4 20.4 0 0 0 1.5-5.5q1.063-1.321 2.5-2" style="opacity:1"/><path fill="#c7c7c7" d="M581.5 946.5h197a5930 5930 0 0 1-154 1q-8.047 1.93-16 0-13.773.49-27-1" style="opacity:1"/><path fill="#ebebeb" d="M459.5 946.5h122q13.227 1.49 27 1a5002 5002 0 0 1-200 0q25.763.495 51-1" style="opacity:1"/><path fill="#ededed" d="M922.5 943.5h2q.456.975 1 2a90 90 0 0 0-7.5 5 26.7 26.7 0 0 0-6.5-1.5 6975 6975 0 0 1-116.5-1.5 3798 3798 0 0 1-170.5 0q77.254.498 154-1h143q-.356-1.937 1-3" style="opacity:1"/></svg>